:SAMPLES-PER-SECOND 30
:FULLY-SPECIFIED
:DEGREES
585
root  61.8358 38.7809 10.6879 179.318 -75.0125 172.68
RightUpLeg  -10.7271 -2.2401 -10.9008
RightLeg  11.6558 1.59813 -0.530768
RightFoot  -6.47923 -0.335072 6.84748
RightToes  5.82063e-011 0 -3.6325e-017
Spine  6.86476 -0.151237 -3.04296
Spine1  9.83469 -0.801752 0.477736
HEad  15.5733 -11.3078 -37.4607
LeftShoulder1  -0.124184 3.86743 -27.9765
LeftArm  -17.1931 2.44439 -36.5622
LeftForeArm  87.5811 -78.0341 -111.561
LeftHand  -0.0622675 0.113914 1.35981
RightShoulder  -0.621959 -5.48746 24.6253
RightArm  -15.4924 -7.50874 35.8235
RightForeArm  108.783 70.1919 144.948
RightHand  -0.102782 -0.429614 -2.23905
LeftUpLeg  6.7401 6.10299 -3.1962
LeftLeg  13.6942 -5.01895 -0.798129
LeftFoot  -12.4645 0.138697 6.48809
LeftToes  1.54581e-011 7.46816e-011 -4.69922e-011
586
root  61.2261 38.7295 10.3013 -178.162 -76.6135 170.412
RightUpLeg  -11.0249 -7.52273 -10.4437
RightLeg  5.21393 6.92187 -1.29925
RightFoot  -5.2427 -0.482314 8.33364
RightToes  5.82063e-011 0 -3.6325e-017
Spine  6.24561 -0.101761 -2.65119
Spine1  10.3002 -0.586666 0.28519
HEad  16.2781 -12.7302 -37.3877
LeftShoulder1  -0.146081 3.92831 -28.2539
LeftArm  -17.2696 1.77979 -36.4249
LeftForeArm  87.2644 -78.0277 -111.499
LeftHand  -0.0743752 0.182935 1.67187
RightShoulder  -0.592461 -5.40332 24.4428
RightArm  -15.9188 -7.34 35.9826
RightForeArm  108.429 70.1547 144.978
RightHand  -0.204776 1.36138 -3.68722
LeftUpLeg  7.64491 5.97421 -3.0528
LeftLeg  13.4783 -6.71344 -1.03006
LeftFoot  -13.292 0.18858 6.37604
LeftToes  1.54581e-011 7.46816e-011 -4.69922e-011
587
root  60.555 38.6378 9.84359 -175.24 -77.9735 167.7
RightUpLeg  -10.9387 -9.80094 -10.3612
RightLeg  -0.515392 8.23663 -1.81139
RightFoot  -3.68568 -0.696318 10.0243
RightToes  5.82063e-011 0 -3.6325e-017
Spine  5.5309 0.0369308 -2.56489
Spine1  10.7761 -0.386547 0.31816
HEad  16.8135 -13.8051 -37.6838
LeftShoulder1  -0.140356 3.91202 -28.2172
LeftArm  -17.6511 1.48084 -36.7065
LeftForeArm  88.2504 -77.9732 -112.278
LeftHand  -0.0533229 1.32734 1.31296
RightShoulder  -0.58586 -5.38783 24.341
RightArm  -15.9596 -7.14205 35.9711
RightForeArm  108.376 70.2465 144.795
RightHand  -0.119541 0.56816 -2.42831
LeftUpLeg  8.51714 5.96569 -2.76576
LeftLeg  13.6819 -8.10725 -1.20486
LeftFoot  -14.3688 0.250369 6.19186
LeftToes  1.54581e-011 7.46816e-011 -4.69922e-011
588
root  59.8321 38.4827 9.35284 -170.771 -79.4164 163.348
RightUpLeg  -11.0694 -10.5132 -10.8747
RightLeg  -3.06728 7.5689 -1.44013
RightFoot  -3.60174 -0.800673 11.4359
RightToes  5.82063e-011 0 -3.6325e-017
Spine  4.81108 -0.0881686 -2.4971
Spine1  11.4609 -0.389388 -0.0913788
HEad  16.7823 -14.8431 -37.6296
LeftShoulder1  -0.0906293 3.77047 -27.7731
LeftArm  -18.1005 1.51964 -37.1422
LeftForeArm  88.2605 -78.0091 -111.999
LeftHand  -0.023132 1.20196 0.399508
RightShoulder  -0.568658 -5.33198 24.3317
RightArm  -16.1519 -6.80551 36.1235
RightForeArm  108.384 70.3756 144.546
RightHand  -0.0449734 -0.183712 -0.849499
LeftUpLeg  9.40518 5.96762 -2.44298
LeftLeg  14.2434 -9.87446 -1.56627
LeftFoot  -15.7906 0.326596 5.96391
LeftToes  1.54581e-011 7.46816e-011 -4.69922e-011
589
root  59.0599 38.3254 8.81354 -166.097 -80.3377 158.48
RightUpLeg  -11.666 -10.6944 -10.9128
RightLeg  -1.67289 7.59859 -1.15332
RightFoot  -3.83659 -0.752592 11.0076
RightToes  5.82063e-011 0 -3.6325e-017
Spine  4.94332 0.00779805 -2.39965
Spine1  11.5038 -0.219691 -0.325324
HEad  16.8366 -15.9413 -37.2799
LeftShoulder1  -0.0643472 3.69346 -27.5425
LeftArm  -18.1098 1.80009 -37.2974
LeftForeArm  88.0596 -77.9736 -112.206
LeftHand  -0.0838058 0.50087 1.97815
RightShoulder  -0.609011 -5.44851 24.5738
RightArm  -15.8213 -6.83901 35.87
RightForeArm  108.8 70.2214 144.893
RightHand  -0.00428347 -1.6881 0.343823
LeftUpLeg  10.9464 5.81578 -2.16815
LeftLeg  14.3335 -11.0019 -1.62038
LeftFoot  -17.1367 0.376203 5.39835
LeftToes  1.54581e-011 7.46816e-011 -4.69922e-011
